<?xml version="1.0" encoding="utf-8"?>
<!-- Generator: Adobe Illustrator 28.2.0, SVG Export Plug-In . SVG Version: 6.00 Build 0)  -->
<svg version="1.1" id="Layer_1" xmlns="http://www.w3.org/2000/svg" xmlns:xlink="http://www.w3.org/1999/xlink" x="0px" y="0px"
	 viewBox="0 0 500 500" style="enable-background:new 0 0 500 500;" xml:space="preserve">
<style type="text/css">
	.st0{fill:#FFDB4E;}
</style>
<g>
	<path class="st0" d="M386.6,460.3c-1.1,0-2.2-0.3-3.2-0.8l-128.6-67.6c-1.7-0.9-3.6-1.4-5.6-1.4s-3.9,0.5-5.6,1.4l-128.6,67.6
		c-1,0.5-2.1,0.8-3.2,0.8c-2,0-4-0.9-5.4-2.5c-1.3-1.6-1.9-3.6-1.5-5.6l24.6-143.2c0.7-3.9-0.6-7.8-3.4-10.6L22.1,197
		c-1.9-1.9-2.6-4.6-1.8-7.1c0.8-2.6,2.9-4.4,5.6-4.7l143.7-20.9c3.9-0.6,7.3-3,9-6.5L243,27.4c1.2-2.4,3.5-3.9,6.2-3.9
		c2.7,0,5,1.5,6.2,3.9l64.3,130.3c1.7,3.5,5.1,6,9,6.5l143.7,20.9c2.7,0.4,4.8,2.2,5.6,4.7c0.8,2.6,0.2,5.2-1.8,7.1l-104,101.4
		c-2.8,2.7-4.1,6.7-3.4,10.6l24.6,143.2c0.4,2.1-0.2,4.1-1.5,5.6C390.6,459.3,388.6,460.3,386.6,460.3z"/>
	<path class="st0" d="M249.2,26c0.8,0,2.9,0.2,4,2.5l64.3,130.3c2.1,4.3,6.2,7.2,10.9,7.9l143.7,20.9c2.5,0.4,3.3,2.2,3.6,3
		c0.3,0.8,0.7,2.8-1.1,4.6l-104,101.4c-3.4,3.3-5,8.1-4.2,12.8L391,452.5c0.3,1.7-0.4,2.9-1,3.6c-0.9,1-2.2,1.6-3.4,1.6
		c-0.7,0-1.4-0.2-2.1-0.5L256,389.6c-2.1-1.1-4.4-1.7-6.7-1.7c-2.3,0-4.7,0.6-6.7,1.7l-128.6,67.6c-0.7,0.4-1.4,0.5-2.1,0.5
		c-1.3,0-2.6-0.6-3.4-1.6c-0.6-0.7-1.2-1.9-1-3.6L132,309.4c0.8-4.7-0.8-9.5-4.2-12.8l-104-101.4c-1.8-1.7-1.4-3.8-1.1-4.6
		c0.3-0.8,1.1-2.7,3.6-3l143.7-20.9c4.7-0.7,8.8-3.6,10.9-7.9l64.3-130.3C246.3,26.2,248.4,26,249.2,26 M249.2,21
		c-3.4,0-6.8,1.8-8.5,5.3l-64.3,130.3c-1.4,2.8-4,4.7-7.1,5.2L25.6,182.6c-7.8,1.1-10.9,10.7-5.2,16.1l104,101.4
		c2.2,2.2,3.2,5.3,2.7,8.4l-24.6,143.2c-1,6.1,3.8,11.1,9.3,11.1c1.5,0,3-0.3,4.4-1.1l128.6-67.6c1.4-0.7,2.9-1.1,4.4-1.1
		s3,0.4,4.4,1.1l128.6,67.6c1.5,0.8,3,1.1,4.4,1.1c5.5,0,10.4-5,9.3-11.1l-24.6-143.2c-0.5-3.1,0.5-6.2,2.7-8.4l104-101.4
		c5.6-5.5,2.5-15-5.2-16.1l-143.7-20.9c-3.1-0.4-5.7-2.4-7.1-5.2L257.7,26.3C256,22.8,252.6,21,249.2,21L249.2,21z"/>
</g>
</svg>
